<svg width="4" height="14" viewBox="0 0 4 14" fill="none" xmlns="http://www.w3.org/2000/svg">
<path d="M1.75 3.5C2.7165 3.5 3.5 2.7165 3.5 1.75C3.5 0.783502 2.7165 0 1.75 0C0.783502 0 0 0.783502 0 1.75C0 2.7165 0.783502 3.5 1.75 3.5Z" fill="#A6A6A6"/>
<path d="M1.75 8.75C2.7165 8.75 3.5 7.9665 3.5 7C3.5 6.0335 2.7165 5.25 1.75 5.25C0.783502 5.25 0 6.0335 0 7C0 7.9665 0.783502 8.75 1.75 8.75Z" fill="#A6A6A6"/>
<path d="M3.5 12.25C3.5 13.2165 2.7165 14 1.75 14C0.783502 14 0 13.2165 0 12.25C0 11.2835 0.783502 10.5 1.75 10.5C2.7165 10.5 3.5 11.2835 3.5 12.25Z" fill="#A6A6A6"/>
</svg>
