<svg fill="none" height="12" viewBox="0 0 10 12" width="10" xmlns="http://www.w3.org/2000/svg"><path d="m5 0c-1.57143 0-2.85714 1.35-2.85714 3v.75h-1.428574c-.428572 0-.714286.3-.714286.75v6.75c0 .45.285714.75.714286.75h8.571424c.42858 0 .71429-.3.71429-.75v-6.75c0-.45-.28571-.75-.71429-.75h-1.42857v-.75c0-1.65-1.28571-3-2.85714-3zm.71429 8.775v.975h-1.42858v-.975c-.42857-.225-.71428-.75-.71428-1.275 0-.825.64286-1.5 1.42857-1.5s1.42857.675 1.42857 1.5c0 .525-.28571 1.05-.71428 1.275zm.71428-5.025h-2.85714v-.75c0-.825.64286-1.5 1.42857-1.5s1.42857.675 1.42857 1.5z" fill="#808080"/></svg>