<svg width="10" height="12" viewBox="0 0 10 12" fill="none" xmlns="http://www.w3.org/2000/svg">
<path d="M5 0C3.42857 0 2.14286 1.35 2.14286 3V3.75H0.714286C0.285714 3.75 0 4.05 0 4.5V11.25C0 11.7 0.285714 12 0.714286 12H9.28571C9.71429 12 10 11.7 10 11.25V4.5C10 4.05 9.71429 3.75 9.28571 3.75H7.85714V3C7.85714 1.35 6.57143 0 5 0ZM5.71429 8.775V9.75H4.28571V8.775C3.85714 8.55 3.57143 8.025 3.57143 7.5C3.57143 6.675 4.21429 6 5 6C5.78571 6 6.42857 6.675 6.42857 7.5C6.42857 8.025 6.14286 8.55 5.71429 8.775ZM6.42857 3.75H3.57143V3C3.57143 2.175 4.21429 1.5 5 1.5C5.78571 1.5 6.42857 2.175 6.42857 3V3.75Z" fill="#0041FF"/>
</svg>
