<svg width="20" height="20" viewBox="0 0 20 20" fill="none" xmlns="http://www.w3.org/2000/svg">
<path fill-rule="evenodd" clip-rule="evenodd" d="M13.8709 12.3571C13.8253 12.3571 13.7799 12.3547 13.7344 12.3537C13.6853 12.3528 13.6362 12.3525 13.5873 12.3502C13.5271 12.3474 13.4671 12.3425 13.407 12.338C13.3614 12.3347 13.3157 12.3323 13.2703 12.3279C13.1923 12.3205 13.1147 12.3103 13.037 12.2999C12.9799 12.292 12.9228 12.2835 12.866 12.2742C12.7939 12.2624 12.7219 12.2508 12.6504 12.2365C12.6054 12.2275 12.5606 12.2166 12.5159 12.2066C12.4575 12.1936 12.3992 12.1811 12.3414 12.1666C12.2944 12.1547 12.2481 12.1411 12.2014 12.1282C12.1462 12.1129 12.091 12.0977 12.0363 12.0809C11.9891 12.0665 11.9424 12.0506 11.8957 12.035C11.8421 12.0172 11.7887 11.9994 11.7357 11.9801C11.689 11.9631 11.6428 11.945 11.5965 11.9269C11.5441 11.9064 11.4917 11.8856 11.4398 11.8638C11.3942 11.8444 11.3489 11.8245 11.3039 11.8041C11.2521 11.7807 11.2007 11.7569 11.1496 11.7322C11.1053 11.7107 11.0611 11.6888 11.0173 11.6663C10.9663 11.64 10.9156 11.613 10.8653 11.5855C10.8226 11.5619 10.78 11.5383 10.7379 11.5138C10.6871 11.4845 10.637 11.4539 10.5871 11.423C10.5466 11.3979 10.5059 11.3729 10.4659 11.3469C10.4151 11.3139 10.3653 11.2795 10.3155 11.245C10.2775 11.2185 10.2392 11.1926 10.2016 11.1653C10.15 11.1277 10.0995 11.0885 10.0489 11.0493C10.0148 11.0228 9.98014 10.997 9.94647 10.9698C9.89078 10.9246 9.83649 10.8775 9.78221 10.8304C9.755 10.8067 9.72708 10.7839 9.70015 10.7599C9.61977 10.6874 9.5408 10.6129 9.46379 10.5359C9.37303 10.4453 9.28648 10.3515 9.20218 10.2562C9.17538 10.2259 9.15013 10.1948 9.12404 10.1641C9.06709 10.097 9.0114 10.0293 8.95754 9.96011C8.92976 9.92434 8.90241 9.88829 8.87548 9.85195C8.82428 9.78322 8.7749 9.71336 8.72679 9.64281C8.70308 9.60802 8.67895 9.57365 8.65609 9.53844C8.59801 9.44951 8.54261 9.35917 8.48944 9.26757C8.47962 9.25088 8.46896 9.23461 8.45942 9.21764C8.3977 9.1092 8.33977 8.99881 8.28492 8.88715C8.26865 8.85419 8.25406 8.82052 8.23835 8.78727C8.20062 8.7069 8.16415 8.62624 8.12992 8.54446C8.11267 8.50336 8.09625 8.46212 8.07998 8.42074C8.0494 8.34303 8.02051 8.26475 7.99301 8.18592C7.97884 8.1451 7.9644 8.10456 7.95093 8.0636C7.92147 7.97256 7.8944 7.88096 7.86901 7.7888C7.8613 7.76075 7.85246 7.73297 7.84502 7.70478C7.81388 7.58485 7.78625 7.46407 7.76226 7.34259C7.75609 7.31145 7.75146 7.27989 7.74585 7.24875C7.72916 7.15715 7.71401 7.06527 7.70138 6.97283C7.69549 6.92948 7.69058 6.88614 7.68567 6.84251C7.67613 6.75975 7.66814 6.67671 7.66197 6.59339C7.65874 6.5492 7.65537 6.50502 7.65299 6.46083C7.64822 6.37035 7.64597 6.27974 7.64499 6.18898C7.64471 6.15391 7.64331 6.11884 7.64345 6.08377C7.64443 5.96328 7.64808 5.84278 7.65593 5.72215C7.25194 5.94364 6.87924 6.22222 6.55142 6.55004C4.64958 8.45188 4.64958 11.5466 6.55142 13.4486C8.45339 15.3504 11.548 15.3501 13.4497 13.4486C13.7776 13.1206 14.0562 12.7479 14.2777 12.3439C14.1515 12.3522 14.0254 12.3556 13.8994 12.3561C13.8899 12.3561 13.8803 12.3571 13.8709 12.3571Z" fill="#A875F5"/>
<path fill-rule="evenodd" clip-rule="evenodd" d="M9.07844 5.21042C9.06806 5.26443 9.05922 5.31858 9.05066 5.37272C9.04477 5.41102 9.03748 5.44931 9.03229 5.48761C9.02219 5.56406 9.01517 5.6405 9.00872 5.71695C9.00648 5.74389 9.00269 5.77082 9.00086 5.79775C8.99371 5.90141 8.98992 6.00494 8.9895 6.10818C8.98936 6.13034 8.99091 6.15208 8.99119 6.17425C8.99189 6.25533 8.99343 6.3364 8.9982 6.41734C9.00044 6.45437 9.00465 6.49127 9.00774 6.5283C9.01307 6.59381 9.0184 6.65932 9.02625 6.7244C9.0313 6.76564 9.03832 6.8066 9.04435 6.8477C9.05333 6.90816 9.06231 6.96862 9.07353 7.02866C9.08152 7.07144 9.09106 7.11394 9.10018 7.15659C9.11266 7.21438 9.12529 7.27203 9.13974 7.32926C9.15068 7.37247 9.16274 7.41539 9.17481 7.45818C9.19052 7.51415 9.20693 7.56984 9.2246 7.6251C9.23835 7.66817 9.25308 7.71081 9.26795 7.75345C9.28702 7.80788 9.30708 7.86189 9.32798 7.91561C9.34454 7.95769 9.36151 7.99977 9.37918 8.04144C9.40177 8.09474 9.42562 8.14748 9.45002 8.19995C9.4691 8.24091 9.48832 8.28173 9.50852 8.32212C9.53475 8.37445 9.56238 8.42607 9.59058 8.47755C9.6119 8.51654 9.63308 8.55582 9.65552 8.5944C9.68568 8.64616 9.71767 8.6968 9.74979 8.74758C9.77308 8.78447 9.7958 8.8215 9.82007 8.85769C9.85499 8.90973 9.89217 8.96051 9.9292 9.01129C9.95347 9.04454 9.97675 9.0782 10.0019 9.11089C10.0442 9.16601 10.0893 9.21946 10.1341 9.27304C10.1564 9.29955 10.1776 9.32705 10.2006 9.35328C10.2698 9.43197 10.3413 9.50898 10.4161 9.58375C10.4909 9.65852 10.568 9.7302 10.6468 9.79935C10.6722 9.82166 10.6987 9.84199 10.7244 9.8636C10.7788 9.90947 10.8334 9.95534 10.8897 9.99854C10.9208 10.0224 10.9531 10.0447 10.9846 10.0677C11.0372 10.1061 11.0898 10.1446 11.1437 10.1808C11.1778 10.2036 11.2127 10.2249 11.2472 10.247C11.3004 10.2808 11.3537 10.3142 11.408 10.3457C11.4439 10.3668 11.4805 10.3864 11.5168 10.4063C11.5712 10.4362 11.626 10.4655 11.6815 10.4933C11.7187 10.5118 11.7561 10.5295 11.7937 10.547C11.8501 10.5734 11.9069 10.5989 11.9642 10.623C12.0017 10.639 12.0396 10.6543 12.0775 10.6693C12.1361 10.6923 12.1952 10.7141 12.2545 10.7348C12.2923 10.748 12.33 10.7609 12.368 10.7733C12.429 10.7928 12.4906 10.8109 12.5523 10.8281C12.5896 10.8386 12.6268 10.8492 12.6644 10.8587C12.7284 10.8748 12.7928 10.8891 12.8573 10.9029C12.8933 10.9105 12.9292 10.9186 12.9654 10.9253C13.0335 10.9382 13.1019 10.9485 13.1705 10.9584C13.2039 10.9632 13.237 10.969 13.2705 10.9732C13.3457 10.9823 13.4212 10.9887 13.4967 10.9945C13.524 10.9967 13.5512 11 13.5786 11.0015C13.6745 11.0073 13.7706 11.0099 13.867 11.0099C13.8743 11.0099 13.8814 11.0106 13.8887 11.0106C13.9936 11.0101 14.0987 11.0061 14.2038 10.999C14.2248 10.9976 14.2459 10.9945 14.2669 10.9928C14.3488 10.9862 14.4307 10.9784 14.5127 10.9676C14.5514 10.9624 14.5899 10.9551 14.6285 10.9489C14.6822 10.9405 14.736 10.9318 14.7896 10.9214C15.092 9.34136 14.5961 7.69664 13.4497 6.55004C12.3035 5.40386 10.659 4.90743 9.07844 5.21042Z" fill="#A875F5"/>
<path fill-rule="evenodd" clip-rule="evenodd" d="M10 0C4.47685 0 0 4.47629 0 10C0 15.5236 4.47685 19.9999 10 19.9999C15.5232 19.9999 20 15.5236 20 10C20 4.47629 15.5232 0 10 0ZM15.9984 11.6627L15.998 11.6641L15.8967 12.0306L15.8824 12.0345C15.5755 12.922 15.0688 13.734 14.4021 14.4008C13.1886 15.6143 11.5945 16.2212 10.0006 16.2212C8.40649 16.2212 6.81255 15.6143 5.59904 14.4008C3.17202 11.9737 3.17202 8.02466 5.5989 5.59792C6.26562 4.9312 7.07767 4.42438 7.96532 4.11732L7.96925 4.10316L8.33649 4.0016C10.496 3.40473 12.8205 4.01619 14.4021 5.59792C15.9835 7.17951 16.5953 9.50329 15.9984 11.6627Z" fill="#A875F5"/>
</svg>
