<svg fill="none" height="16" viewBox="0 0 16 16" width="16" xmlns="http://www.w3.org/2000/svg"><path clip-rule="evenodd" d="m1.875 1h4.375c.23206 0 .45462.09219.61872.25628.16409.1641.25628.38666.25628.61872v4.375c0 .23206-.09219.45462-.25628.61872-.1641.16409-.38666.25628-.61872.25628h-4.375c-.23206 0-.45462-.09219-.61872-.25628-.16409-.1641-.25628-.38666-.25628-.61872v-4.375c0-.23206.09219-.45462.25628-.61872.1641-.16409.38666-.25628.61872-.25628zm.875 4.375h2.625v-2.625h-2.625zm7 3.5h4.375c.2321 0 .4546.09219.6187.25628.1641.1641.2563.38666.2563.61872v4.375c0 .2321-.0922.4546-.2563.6187s-.3866.2563-.6187.2563h-4.375c-.23206 0-.45462-.0922-.61872-.2563-.16409-.1641-.25628-.3866-.25628-.6187v-4.375c0-.23206.09219-.45462.25628-.61872.1641-.16409.38666-.25628.61872-.25628zm.875 4.375h2.625v-2.625h-2.625zm-4.375-4.375h-4.375c-.23206 0-.45462.09219-.61872.25628-.16409.1641-.25628.38666-.25628.61872v4.375c0 .2321.09219.4546.25628.6187.1641.1641.38666.2563.61872.2563h4.375c.23206 0 .45462-.0922.61872-.2563.16409-.1641.25628-.3866.25628-.6187v-4.375c0-.23206-.09219-.45462-.25628-.61872-.1641-.16409-.38666-.25628-.61872-.25628zm-.875 4.375h-2.625v-2.625h2.625zm5.2981-6.12498h-.0482c-.232-.00005-.4545-.09227-.6186-.25637l-1.74998-1.75001c-.16442-.16406-.25693-.38673-.25717-.619-.00025-.23228.09179-.45514.25585-.61956.16407-.16441.38674-.25692.61901-.25717.11502-.00012.22892.02241.33523.06631.1063.0439.20292.10831.28433.18955l1.05873 1.05875 2.8893-3.60938c.1452-.18124.3566-.29735.5874-.32278.1144-.012596.23-.00255.3405.02956.1104.03212.2135.08567.3032.1576.1812.14527.2973.35659.3228.58747.0254.23088-.0419.46241-.1872.64366l-3.5 4.375c-.077.09601-.1733.17471-.2828.23094-.1095.05624-.2295.08876-.3524.09543z" fill="#808080" fill-rule="evenodd"/></svg>