<?xml version="1.0" encoding="UTF-8"?>
<svg width="40px" height="40px" viewBox="0 0 40 40" version="1.1" xmlns="http://www.w3.org/2000/svg" xmlns:xlink="http://www.w3.org/1999/xlink">
    <!-- Generator: sketchtool 49 (51002) - http://www.bohemiancoding.com/sketch -->
    <title>CC304926-D171-4833-BCCC-4CE4CBEA284F</title>
    <desc>Created with sketchtool.</desc>
    <defs>
        <path d="M77.3835628,4.41387039 C72.8813451,2.14921908 69.129497,6.81173648 67.3786346,4.41387039 C66.7533266,3.48136691 68.2540658,1.74957473 67.3786346,0.550641685 C66.7533266,-0.248647013 65.2525873,-0.11543223 64.3771561,0.550641685 C61.7508624,2.54886343 60,5.74601822 60,9.34281736 C60,15.2042678 64.5022177,20 70.0049282,20 C74.6322076,20 78.5091172,16.6696304 79.6346717,12.1403278 C80.1349181,10.6749652 80.6351645,6.14566257 77.3835628,4.41387039 Z M63.7518481,10.0088913 C63.0014785,10.0088913 62.5012321,9.47603214 62.5012321,8.67674345 C62.5012321,7.87745475 63.0014785,7.34459562 63.7518481,7.34459562 C64.5022177,7.34459562 65.0024641,7.87745475 65.0024641,8.67674345 C65.0024641,9.47603214 64.5022177,10.0088913 63.7518481,10.0088913 Z M66.2530802,15.3374826 C65.5027105,15.3374826 65.0024641,14.8046235 65.0024641,14.0053348 C65.0024641,13.2060461 65.5027105,12.6731869 66.2530802,12.6731869 C67.0034498,12.6731869 67.5036962,13.2060461 67.5036962,14.0053348 C67.5036962,14.8046235 67.0034498,15.3374826 66.2530802,15.3374826 Z M71.2555443,18.0017783 C70.5051747,18.0017783 70.0049282,17.4689191 70.0049282,16.6696304 C70.0049282,15.8703417 70.5051747,15.3374826 71.2555443,15.3374826 C72.0059139,15.3374826 72.5061603,15.8703417 72.5061603,16.6696304 C72.5061603,17.4689191 72.0059139,18.0017783 71.2555443,18.0017783 Z M75.0073924,12.6731869 C73.6317147,12.6731869 72.5061603,11.4742539 72.5061603,10.0088913 C72.5061603,8.54352866 73.6317147,7.34459562 75.0073924,7.34459562 C76.38307,7.34459562 77.5086244,8.54352866 77.5086244,10.0088913 C77.5086244,11.4742539 76.38307,12.6731869 75.0073924,12.6731869 Z" id="path-1"></path>
        <filter x="-80.0%" y="-70.0%" width="260.0%" height="260.0%" filterUnits="objectBoundingBox" id="filter-2">
            <feOffset dx="0" dy="2" in="SourceAlpha" result="shadowOffsetOuter1"></feOffset>
            <feGaussianBlur stdDeviation="5" in="shadowOffsetOuter1" result="shadowBlurOuter1"></feGaussianBlur>
            <feColorMatrix values="0 0 0 0 0   0 0 0 0 0.254901961   0 0 0 0 1  0 0 0 0.35 0" type="matrix" in="shadowBlurOuter1"></feColorMatrix>
        </filter>
    </defs>
    <g id="Groups" stroke="none" stroke-width="1" fill="none" fill-rule="evenodd">
        <g id="01.8.color_custom_premium" transform="translate(-435.000000, -332.000000)" fill-rule="nonzero">
            <g id="color_picker_custom" transform="translate(365.000000, 284.000000)">
                <g id="Group" transform="translate(20.000000, 56.000000)">
                    <g id="custom_colors_icon">
                        <use fill="black" fill-opacity="1" filter="url(#filter-2)" xlink:href="#path-1"></use>
                        <use fill="#0041FF" fill-rule="evenodd" xlink:href="#path-1"></use>
                    </g>
                </g>
            </g>
        </g>
    </g>
</svg>