<svg width="228" height="47" viewBox="0 0 228 47" fill="none" xmlns="http://www.w3.org/2000/svg">
<path d="M68.0891 16.7194C68.6127 16.2238 69.3743 15.9986 70.0884 15.9986C70.8024 15.9986 71.564 16.2238 72.0876 16.7194C72.6112 17.215 72.8492 17.9359 72.8492 18.6117C72.8492 19.3326 72.6112 20.0084 72.0876 20.504C71.564 20.9996 70.8024 21.2248 70.0884 21.2248C69.3743 21.2248 68.6127 20.9996 68.0891 20.504C67.5655 20.0084 67.3275 19.2875 67.3275 18.6117C67.3275 17.9359 67.5655 17.215 68.0891 16.7194ZM84.0832 40.1024C83.988 38.075 83.3692 35.9124 81.7507 34.4707C79.9419 32.8938 77.3238 32.1279 74.8961 32.1279H64.043C62.9481 32.1279 62.0437 31.3619 62.0437 30.4158C62.0437 29.6048 62.6149 28.9741 63.3766 28.7488C63.3766 28.7488 63.567 28.7038 63.7574 28.6587C65.709 29.5598 67.8987 29.9202 70.0884 29.9202C73.4205 29.9202 76.8002 28.9741 79.2754 26.8115C81.6555 24.694 82.7979 21.7204 82.7979 18.7018C82.7979 15.6832 81.6555 12.7096 79.2754 10.5921C78.5614 9.96136 77.7998 9.46576 76.943 9.01523C79.2278 9.51082 81.6079 8.88006 83.2739 6.22189L78.6566 3.06812L74.8009 8.1592C73.2776 7.70866 71.7068 7.48339 70.0884 7.48339C66.7563 7.48339 63.3766 8.42953 60.9013 10.5921C58.5212 12.7096 57.3788 15.6832 57.3788 18.7018C57.3788 21.7204 58.4736 24.694 60.9013 26.8115C61.0917 26.9917 61.3297 27.1719 61.5677 27.3521C61.3297 27.4873 61.1393 27.5774 61.1393 27.5774C60.2349 28.028 59.1876 28.7939 58.0928 29.8752C56.5696 31.407 55.0463 33.7047 55.0463 36.7234C55.0463 36.7234 54.8559 43.2111 62.7101 43.2111H68.4223C69.7551 43.2111 71.088 44.0221 71.088 45.2385C71.088 45.6891 70.9452 46.0946 70.7072 46.455H81.6555C83.2263 44.788 84.1308 42.31 84.0832 40.1024Z" fill="#A876F5"/>
<path d="M95.8404 16.7194C96.364 16.2238 97.1257 15.9986 97.8397 15.9986C98.5537 15.9986 99.3153 16.2238 99.839 16.7194C100.363 17.215 100.601 17.9359 100.601 18.6117C100.601 19.3326 100.363 20.0084 99.839 20.504C99.3153 20.9995 98.5537 21.2248 97.8397 21.2248C97.1257 21.2248 96.364 20.9995 95.8404 20.504C95.3168 20.0084 95.0788 19.2875 95.0788 18.6117C95.0312 17.9359 95.3168 17.215 95.8404 16.7194ZM115.167 40.1024C115.071 38.075 114.453 35.9124 112.834 34.4707C111.025 32.8938 108.407 32.1278 105.98 32.1278L93.3652 32.0377C92.5559 32.0377 91.9847 31.5872 91.9847 30.8663C91.9847 30.2806 92.2703 29.4246 93.0319 29.2895C94.5076 29.74 96.126 29.9653 97.6969 29.9653C101.029 29.9653 104.409 29.0191 106.884 26.8565C109.264 24.739 110.406 21.7655 110.406 18.7469C110.406 15.7282 109.264 12.7547 106.884 10.6372C106.17 10.0064 105.408 9.51081 104.551 9.06027C106.836 9.55586 109.216 8.92511 110.882 6.26693L106.265 3.11316L102.409 8.20425C100.886 7.75371 99.3153 7.52844 97.6969 7.52844C94.3648 7.52844 90.9851 8.47457 88.5098 10.6372C86.1297 12.7547 84.9873 15.7282 84.9873 18.7469C84.9873 21.7655 86.1297 24.739 88.5098 26.8565C89.2238 27.4873 89.9855 28.028 90.8423 28.4334C90.2711 28.8389 89.6999 29.3345 89.1286 29.9202C87.6054 31.452 86.0821 33.7498 86.0821 36.7684C86.0821 36.7684 85.8917 43.2562 93.746 43.2562H99.4581C100.791 43.2562 102.124 44.0671 102.124 45.2836C102.124 45.7341 101.981 46.1396 101.743 46.5H112.691C114.357 44.788 115.262 42.31 115.167 40.1024Z" fill="#A876F5"/>
<path d="M128.4 36.7684V27.0367C126.067 27.3071 125.21 25.7302 125.21 24.1983V0.5H113.548V25.9554C113.548 29.1092 114.024 31.7674 115.262 33.4344C117.118 35.9574 119.641 37.6244 124.591 37.6244C125.543 37.5793 127.067 37.3991 128.4 36.7684Z" fill="#A876F5"/>
<path d="M42.3368 24.9643C41.6228 25.6401 40.6708 25.9104 39.7188 25.9104C38.7667 25.9104 37.8147 25.6401 37.1007 24.9643C36.4343 24.3335 36.101 23.4324 36.101 22.4863C36.101 21.5402 36.4343 20.6842 37.1007 20.0083C37.8147 19.3325 38.7667 19.0622 39.7188 19.0622C40.6708 19.0622 41.6228 19.3325 42.3368 20.0083C43.0033 20.6391 43.3365 21.5402 43.3365 22.4863C43.3365 23.4324 43.0033 24.2885 42.3368 24.9643ZM51.0479 11.7635C48.049 8.83498 43.9077 7.61853 39.814 7.61853C35.7202 7.61853 31.5789 8.88004 28.58 11.7635C25.6287 14.6019 24.2959 18.5666 24.2959 22.6215C24.2959 26.6763 25.6763 30.6411 28.58 33.4794C31.5789 36.4079 35.7202 37.6244 39.814 37.6244C43.9077 37.6244 48.049 36.3629 51.0479 33.4794C53.9992 30.6411 55.332 26.6763 55.332 22.6215C55.332 18.5666 53.9516 14.6019 51.0479 11.7635Z" fill="#A876F5"/>
<path d="M157.342 33.2992C158.532 32.8036 159.532 32.0828 160.388 31.1817C161.198 30.2806 161.864 29.2444 162.292 28.0279C162.721 26.8565 162.959 25.55 162.959 24.1082C162.959 22.7116 162.721 21.4501 162.292 20.2336C161.864 19.0171 161.198 17.9809 160.388 17.0798C159.579 16.1788 158.532 15.5029 157.342 14.9623C156.152 14.4667 154.819 14.1964 153.248 14.1964C151.773 14.1964 150.392 14.4217 149.25 14.9172C148.06 15.4128 147.06 16.0886 146.203 16.9447C145.394 17.8007 144.728 18.8369 144.251 20.0534C143.775 21.2698 143.585 22.6215 143.585 24.0632C143.585 25.55 143.823 26.9016 144.251 28.073C144.728 29.2894 145.346 30.3257 146.203 31.1817C147.012 32.0377 148.06 32.7135 149.25 33.2091C150.44 33.7047 151.773 33.93 153.248 33.93C154.819 34.0201 156.152 33.7948 157.342 33.2992ZM140.681 12.1239H143.775V17.3952C144.156 16.6743 144.632 15.9535 145.204 15.2326C145.775 14.5118 146.489 13.881 147.346 13.3404C148.155 12.7997 149.107 12.3492 150.202 12.0338C151.249 11.7184 152.487 11.5382 153.772 11.5382C155.628 11.5382 157.342 11.8536 158.865 12.4843C160.388 13.1151 161.674 14.0162 162.768 15.1425C163.816 16.2689 164.673 17.6205 165.244 19.1523C165.815 20.6841 166.101 22.3511 166.101 24.1533C166.101 25.9554 165.815 27.6224 165.244 29.1543C164.673 30.6861 163.863 32.0377 162.768 33.1641C161.721 34.2904 160.388 35.1915 158.865 35.8222C157.342 36.453 155.628 36.7684 153.772 36.7684C152.439 36.7684 151.249 36.5882 150.202 36.2728C149.154 35.9574 148.202 35.5069 147.393 34.9662C146.584 34.4256 145.87 33.7948 145.251 33.074C144.632 32.3531 144.109 31.6322 143.728 30.9114V45.7791H140.634V12.1239H140.681Z" fill="#A876F5"/>
<path d="M174.669 2.48242H171.479V36.2278H174.669V2.48242Z" fill="#A876F5"/>
<path d="M188.282 24.8742C186.33 25.0544 184.95 25.595 184.141 26.451C183.332 27.3071 182.903 28.2982 182.903 29.4246C182.903 30.8213 183.379 31.9026 184.331 32.7135C185.283 33.5245 186.711 33.93 188.568 33.93C189.996 33.93 191.281 33.7047 192.376 33.2542C193.471 32.8036 194.423 32.1729 195.184 31.407C195.946 30.641 196.517 29.785 196.898 28.8389C197.279 27.8928 197.469 26.9016 197.469 25.9104V23.928L188.282 24.8742ZM181.666 15.0524C182.142 14.3315 182.808 13.7458 183.617 13.2052C184.426 12.6646 185.426 12.2591 186.568 11.9887C187.711 11.7184 189.091 11.5382 190.71 11.5382C194.089 11.5382 196.612 12.2591 198.231 13.7458C199.849 15.2326 200.658 17.4403 200.658 20.4138V36.2277H197.564V31.0465C196.803 32.8937 195.565 34.2904 193.947 35.2365C192.281 36.1827 190.424 36.6783 188.282 36.6783C186.902 36.6783 185.664 36.4981 184.569 36.1376C183.522 35.7772 182.618 35.2816 181.904 34.6058C181.19 33.975 180.666 33.2091 180.285 32.308C179.904 31.407 179.714 30.4608 179.714 29.4246C179.714 27.1719 180.475 25.4599 182.046 24.2885C183.57 23.1171 185.521 22.3962 187.854 22.1709L196.327 21.405C197.184 21.3149 197.612 20.9545 197.612 20.4138V19.5578C197.612 17.9359 197.088 16.6293 196.041 15.6832C194.994 14.737 193.28 14.2414 190.9 14.2414C186.568 14.2414 184.093 15.7733 183.427 18.7919L180.666 17.3952C180.856 16.4941 181.19 15.7282 181.666 15.0524Z" fill="#A876F5"/>
<path d="M212.369 13.1601C213.94 12.0789 215.844 11.5382 218.129 11.5382C221.365 11.5382 223.793 12.5294 225.364 14.4667C226.935 16.404 227.744 18.9721 227.744 22.1709V36.2277H224.555V21.9457C224.555 19.5578 223.936 17.6655 222.698 16.3139C221.461 14.9623 219.747 14.2865 217.51 14.2865C215.891 14.2865 214.511 14.5568 213.416 15.1425C212.321 15.7282 211.417 16.4941 210.75 17.4853C210.084 18.4765 209.608 19.6479 209.322 20.9094C209.037 22.216 208.894 23.5676 208.894 25.0093V36.1376H205.8V12.1239H208.799V17.4853C209.608 15.6832 210.798 14.2414 212.369 13.1601Z" fill="#A876F5"/>
<path d="M20.0114 27.0818C18.0598 27.0818 17.2505 26.4961 16.5365 25.6401C16.0605 25.0544 15.8225 24.2434 15.8225 23.1621V18.1611H22.3439V9.15034H15.8701V0.5H7.53985V3.74388C7.53985 7.34819 4.63617 10.2316 1.06606 10.2316C0.780452 10.2316 0.542444 10.2316 0.256836 10.1866V18.1611H4.63617V26.1807C4.63617 29.3345 5.25499 31.7674 6.44502 33.4344C8.30148 35.9574 10.3483 37.6244 15.3941 37.6244C18.2978 37.6244 20.773 36.9936 22.3439 36.1376V26.7214C21.7727 26.9466 20.9635 27.0818 20.0114 27.0818Z" fill="#A876F5"/>
</svg>
