<svg fill="none" height="16" viewBox="0 0 16 16" width="16" xmlns="http://www.w3.org/2000/svg"><path clip-rule="evenodd" d="m12.6375 5.57025 1.575 1.04775c.525.34925.7875.87312.7875 1.48431v.6985c0 .52388-.35.87312-.875.87312h-2.975c0-.08731-1.05-.87312-1.05-.87312.35-.61119.525-1.397.525-2.18281v-.87313c0-1.39699-.6125-2.61937-1.575-3.49249.4375-.78582 1.3125-1.397003 2.3625-1.22238 1.05.17463 1.8375 1.22238 1.8375 2.27013v.78581c0 .61119-.2625 1.13506-.6125 1.48431zm-5.075 3.66713 2.3625 1.74622c.4375.3493.7.8732.7 1.397v1.7463c0 .5239-.35.8731-.875.8731h-7.875c-.525 0-.875-.3492-.875-.8731v-1.659c0-.5238.2625-1.0477.7-1.397l2.3625-1.83352c-.7875-.61119-1.3125-1.48431-1.3125-2.53206v-.87313c0-1.74624 1.4875-3.14324 3.2375-3.05593 1.6625.08731 2.8875 1.57162 2.8875 3.23056v.6985c0 1.04775-.525 1.92087-1.3125 2.53206z" fill="#808080" fill-rule="evenodd"/></svg>