<?xml version="1.0" encoding="UTF-8" standalone="no"?>
<!-- Created with Inkscape (http://www.inkscape.org/) -->

<svg
   xmlns:dc="http://purl.org/dc/elements/1.1/"
   xmlns:cc="http://creativecommons.org/ns#"
   xmlns:rdf="http://www.w3.org/1999/02/22-rdf-syntax-ns#"
   xmlns:svg="http://www.w3.org/2000/svg"
   xmlns="http://www.w3.org/2000/svg"
   xmlns:xlink="http://www.w3.org/1999/xlink"
   version="1.1"
   width="100%"
   height="100%"
   viewBox="0 0 178 178"
   id="Layer_1"
   xml:space="preserve"><metadata
     id="metadata45"><rdf:RDF><cc:Work
         rdf:about=""><dc:format>image/svg+xml</dc:format><dc:type
           rdf:resource="http://purl.org/dc/dcmitype/StillImage" /><dc:title></dc:title></cc:Work></rdf:RDF></metadata><defs
     id="defs3"><circle
       cx="89"
       cy="89"
       r="87.900002"
       id="SVGID_1_" /><clipPath
       id="clipPath444"><path
         d="m 0,0 1920,0 0,1080 L 0,1080 0,0 z"
         id="path446" /></clipPath><clipPath
       id="clipPath428"><path
         d="m 1480,437 329,0 0,206 -329,0 0,-206 z"
         id="path430" /></clipPath><clipPath
       id="clipPath412"><path
         d="m 1029,437 315,0 0,206 -315,0 0,-206 z"
         id="path414" /></clipPath><clipPath
       id="clipPath342"><path
         d="m 571,437 315,0 0,206 -315,0 0,-206 z"
         id="path344" /></clipPath><clipPath
       id="clipPath336"><path
         d="m 571,643 315,0 0,-206 -315,0 0,206 z"
         id="path338" /></clipPath><clipPath
       id="clipPath316"><path
         d="m 571,437 315,0 0,206 -315,0 0,-206 z"
         id="path318" /></clipPath><clipPath
       id="clipPath72"><path
         d="m 114,437 314,0 0,206 -314,0 0,-206 z"
         id="path74" /></clipPath><clipPath
       id="clipPath66"><path
         d="m 114,643 314,0 0,-206 -314,0 0,206 z"
         id="path68" /></clipPath><clipPath
       id="clipPath22"><path
         d="m 0,0 1920,0 0,1080 L 0,1080 0,0 z"
         id="path24-0" /></clipPath></defs><clipPath
     id="SVGID_2_"><use
       id="use7"
       style="overflow:visible"
       x="0"
       y="0"
       width="178"
       height="178"
       xlink:href="#SVGID_1_" /></clipPath><radialGradient
     cx="93"
     cy="18.000099"
     r="181.6259"
     id="SVGID_3_"
     gradientUnits="userSpaceOnUse"><stop
       id="stop10"
       style="stop-color:#80b541;stop-opacity:1"
       offset="0.5661" /><stop
       id="stop12"
       style="stop-color:#7db13f;stop-opacity:1"
       offset="0.62370002" /><stop
       id="stop14"
       style="stop-color:#77a93b;stop-opacity:1"
       offset="0.69980001" /><stop
       id="stop16"
       style="stop-color:#6d9c35;stop-opacity:1"
       offset="0.78619999" /><stop
       id="stop18"
       style="stop-color:#5c882b;stop-opacity:1"
       offset="0.88029999" /><stop
       id="stop20"
       style="stop-color:#476f1d;stop-opacity:1"
       offset="0.97960001" /><stop
       id="stop22"
       style="stop-color:#42691a;stop-opacity:1"
       offset="1" /></radialGradient><path
     d="m 178,166 c 0,6.6 -5.4,12 -12,12 H 12 C 5.4,178 0,172.6 0,166 V 12 C 0,5.4 5.4,0 12,0 h 154 c 6.6,0 12,5.4 12,12 v 154 z"
     clip-path="url(#SVGID_2_)"
     id="path24"
     style="fill:#1dbf11;fill-opacity:1" /><style
     type="text/css"
     id="style3890" /><g
     transform="matrix(0.41042429,0,0,-0.41042429,24.358174,131.2737)"
     id="g10"
     style="fill:#ffffff;fill-opacity:1"><g
       transform="translate(-1029,-437)"
       id="g408"
       style="fill:#ffffff;fill-opacity:1"><g
         clip-path="url(#clipPath412)"
         id="g410"
         style="fill:#ffffff;fill-opacity:1"><path
           d="m 1029,643 65.974,-206 51.117,0 -65.974,206 -51.117,0 z"
           id="path416"
           style="fill:#ffffff;fill-opacity:1;fill-rule:nonzero;stroke:none" /><path
           d="m 1126.629,536.1273 25.62,-79.9962 28.153,87.2446 -25.712,80.1427 -28.061,-87.3911 z"
           id="path418"
           style="fill:#ffffff;fill-opacity:1;fill-rule:nonzero;stroke:none" /><path
           d="m 1160.781,643 65.973,-206 51.117,0 -65.973,206 -51.117,0 z"
           id="path420"
           style="fill:#ffffff;fill-opacity:1;fill-rule:nonzero;stroke:none" /><path
           d="m 1292.56,643 -34.047,-106.8729 25.62,-79.9962 59.868,186.8691 -51.441,0 z"
           id="path422"
           style="fill:#ffffff;fill-opacity:1;fill-rule:nonzero;stroke:none" /></g></g></g></svg>