<?xml version="1.0" encoding="UTF-8" standalone="no"?>
<!-- Generator: Adobe Illustrator 18.1.1, SVG Export Plug-In . SVG Version: 6.00 Build 0)  -->

<svg
   xmlns:dc="http://purl.org/dc/elements/1.1/"
   xmlns:cc="http://creativecommons.org/ns#"
   xmlns:rdf="http://www.w3.org/1999/02/22-rdf-syntax-ns#"
   xmlns:svg="http://www.w3.org/2000/svg"
   xmlns="http://www.w3.org/2000/svg"
   xmlns:xlink="http://www.w3.org/1999/xlink"
   xmlns:sodipodi="http://sodipodi.sourceforge.net/DTD/sodipodi-0.dtd"
   xmlns:inkscape="http://www.inkscape.org/namespaces/inkscape"
   version="1.1"
   id="Layer_1"
   x="0px"
   y="0px"
   viewBox="0 0 178 178"
   enable-background="new 0 0 178 178"
   xml:space="preserve"
   inkscape:version="0.48.5 r10040"
   width="100%"
   height="100%"
   sodipodi:docname="tw_logo_circle.svg"><metadata
     id="metadata45"><rdf:RDF><cc:Work
         rdf:about=""><dc:format>image/svg+xml</dc:format><dc:type
           rdf:resource="http://purl.org/dc/dcmitype/StillImage" /><dc:title></dc:title></cc:Work></rdf:RDF></metadata><sodipodi:namedview
     pagecolor="#ffffff"
     bordercolor="#666666"
     borderopacity="1"
     objecttolerance="10"
     gridtolerance="10"
     guidetolerance="10"
     inkscape:pageopacity="0"
     inkscape:pageshadow="2"
     inkscape:window-width="1280"
     inkscape:window-height="682"
     id="namedview43"
     showgrid="false"
     inkscape:zoom="1.3258427"
     inkscape:cx="84.224227"
     inkscape:cy="83.508083"
     inkscape:window-x="0"
     inkscape:window-y="0"
     inkscape:window-maximized="1"
     inkscape:current-layer="Layer_1" /><defs
     id="defs3"><circle
       id="SVGID_1_"
       cx="89"
       cy="89"
       r="87.9" /></defs><clipPath
     id="SVGID_2_"><use
       xlink:href="#SVGID_1_"
       overflow="visible"
       id="use7" /></clipPath><radialGradient
     id="SVGID_3_"
     cx="93"
     cy="18.0001"
     r="181.6259"
     gradientUnits="userSpaceOnUse"><stop
       offset="0.5661"
       style="stop-color:#80B541"
       id="stop10" /><stop
       offset="0.6237"
       style="stop-color:#7DB13F"
       id="stop12" /><stop
       offset="0.6998"
       style="stop-color:#77A93B"
       id="stop14" /><stop
       offset="0.7862"
       style="stop-color:#6D9C35"
       id="stop16" /><stop
       offset="0.8803"
       style="stop-color:#5C882B"
       id="stop18" /><stop
       offset="0.9796"
       style="stop-color:#476F1D"
       id="stop20" /><stop
       offset="1"
       style="stop-color:#42691A"
       id="stop22" /></radialGradient><path
     clip-path="url(#SVGID_2_)"
     fill="url(#SVGID_3_)"
     d="M178,166c0,6.6-5.4,12-12,12H12c-6.6,0-12-5.4-12-12V12C0,5.4,5.4,0,12,0  h154c6.6,0,12,5.4,12,12V166z"
     id="path24"
     style="fill:#1dbf11;fill-opacity:1" /><style
     id="style3890"
     type="text/css">
	.st0{opacity:0.98;}
	.st1{fill:#35B44A;}
</style><g
     id="g3892"
     class="st0"
     transform="matrix(0.47754866,0,0,0.47754866,22.572981,45.566949)"
     style="opacity:0.98000004;fill:#ffffff;fill-opacity:1"><path
       d="m 211.9,157.2 -13.6,13.6 -17.9,-17.9 h 0 l -9.4,-9.4 -6.6,6.6 1.5,4.6 1.7,-1.7 3.4,-3.4 3.4,3.4 23.9,23.9 15,-15 -1.4,-4.7 z M 153.1,0 h -6 L 143.7,3.4 140.3,0 h -6 l 9.4,9.4 9.4,-9.4 z m 14.5,33.3 3.4,-3.4 0.2,0.2 -1.5,-4.8 -8,8 h 0 l -17.9,17.9 -16,-16 2.8,8.9 13.2,13.2 23.8,-24 z m 12.8,143.5 -9.4,-9.4 -0.8,0.8 2.1,6.7 2,2 5,5 h 6 l -4.9,-5.1 0,0 z m 37.3,-1.5 -1.5,1.5 h 0 l -5,5 h 6 l 2,-2 -1.5,-4.5 z m -46.7,-73.6 3.4,3.4 23.9,23.9 3.4,-3.4 -1.5,-4.6 -2,2 -17.9,-17.9 h 0 l -9.4,-9.4 -9.4,9.4 h 0 l -8.7,8.7 1.5,4.6 13.3,-13.3 3.4,-3.4 z m 0,-23.9 3.4,3.4 19.3,19.3 -2.8,-8.9 -10.4,-10.4 h 0 l -9.4,-9.4 -9.4,9.4 h 0 l -14.5,14.5 1.5,4.6 19.1,-19.1 3.2,-3.4 z m 0,47.8 3.4,3.4 23.9,23.9 9.2,-9.2 -1.5,-4.6 -7.8,7.8 -17.8,-17.9 h 0 l -9.4,-9.4 -9.4,9.4 h 0 l -2.9,2.9 1.5,4.6 7.5,-7.5 3.3,-3.4 z m -5.7,-113.9 -1.5,-4.6 -2.2,2.2 h 0 L 143.7,27.2 125.8,9.4 h 0 l -9.4,-9.4 2.8,8.9 0.6,0.6 23.9,23.9 21.6,-21.7 z m 5.7,42.2 3.4,3.4 8,8 -2.8,-8.9 -8.6,-8.6 -9.4,9.4 h 0 l -17.9,17.9 -4.8,-4.8 2.8,8.9 1.9,1.9 23.9,-23.9 3.5,-3.3 z"
       class="st1"
       id="XMLID_18632_"
       inkscape:connector-curvature="0"
       style="fill:#ffffff;fill-opacity:1" /><g
       id="XMLID_18626_"
       style="fill:#ffffff;fill-opacity:1"><polygon
         points="130.4,97.9 137.7,75 109.8,20.6 102.4,43.5 "
         class="st1"
         id="XMLID_18631_"
         style="fill:#ffffff;fill-opacity:1" /><polygon
         points="128.9,39.2 116.4,0 113.5,9.1 "
         class="st1"
         id="XMLID_18630_"
         style="fill:#ffffff;fill-opacity:1" /><polygon
         points="108.3,166.7 115.6,143.9 113.8,140.3 99.1,111.9 99.1,111.9 87.7,89.6 80.8,111.2 82.5,116.6 94.7,140.3 94.7,140.3 99.1,149 99.1,149 "
         class="st1"
         id="XMLID_18629_"
         style="fill:#ffffff;fill-opacity:1" /><polygon
         points="126.7,109.5 99.1,55.9 99.1,55.9 98.7,55.1 91.4,78 99.1,93 99.1,93 119.3,132.3 "
         class="st1"
         id="XMLID_18628_"
         style="fill:#ffffff;fill-opacity:1" /><polygon
         points="103.4,181.8 104.5,178.3 99.1,167.8 99.1,167.8 98.5,166.6 "
         class="st1"
         id="XMLID_18627_"
         style="fill:#ffffff;fill-opacity:1" /></g><path
       d="m 272.8,0 c 0,2.4 -2,4.3 -4.3,4.3 -2.4,0 -4.3,-1.9 -4.3,-4.3 H 246 c 0,2.4 -2,4.3 -4.3,4.3 -2.4,0 -4.3,-1.9 -4.3,-4.3 h -4.6 L 230,8.8 c 1.6,0.7 2.7,2.2 2.7,4 0,2.4 -1.9,4.3 -4.3,4.3 -0.3,0 -0.7,0 -1,-0.1 l -9.9,30.8 c 1.1,0.8 1.8,2.1 1.8,3.5 0,2.4 -1.9,4.3 -4.3,4.3 l -10.1,31.5 c 0.6,0.7 1,1.7 1,2.7 0,2 -1.3,3.7 -3.2,4.2 l -5.5,17.2 0.6,2 c 0.8,-1.2 2.1,-2 3.7,-2 2.4,0 4.3,1.9 4.3,4.3 0,2.4 -1.9,4.3 -4.3,4.3 -0.6,0 -1.1,-0.1 -1.6,-0.3 l 10.8,33.7 c 0.4,-2 2.1,-3.5 4.3,-3.5 2.4,0 4.3,1.9 4.3,4.3 0,2.4 -1.9,4.3 -4.3,4.3 -1.2,0 -2.2,-0.5 -3,-1.2 l 7.9,24.6 4.4,-13.6 c -0.1,-0.4 -0.2,-0.9 -0.2,-1.3 0,-1.4 0.7,-2.7 1.8,-3.5 l 6.6,-20.6 c -0.6,1.6 -2.2,2.7 -4,2.7 -2.4,0 -4.3,-1.9 -4.3,-4.3 0,-2.4 1.9,-4.3 4.3,-4.3 2.4,0 4.3,1.9 4.3,4.3 0,0.4 -0.1,0.7 -0.1,1.1 l 11.5,-35.9 c -0.7,0.4 -1.5,0.7 -2.3,0.7 -2.4,0 -4.3,-1.9 -4.3,-4.3 0,-2.4 1.9,-4.3 4.3,-4.3 1.8,0 3.4,1.1 4,2.7 l 10.5,-32.7 c -0.4,0.1 -0.8,0.2 -1.1,0.2 -2.4,0 -4.3,-1.9 -4.3,-4.3 0,-2.4 1.9,-4.3 4.3,-4.3 1.4,0 2.6,0.6 3.4,1.6 L 268.6,30 c 0,0 0,0 -0.1,0 -2.4,0 -4.3,-1.9 -4.3,-4.3 0,-2.4 1.9,-4.3 4.3,-4.3 1,0 1.9,0.3 2.6,0.9 L 278.2,0 h -5.4 z m -57.9,132.7 c -2.4,0 -4.3,-1.9 -4.3,-4.3 0,-2.4 1.9,-4.3 4.3,-4.3 2.4,0 4.3,1.9 4.3,4.3 0,2.4 -1.9,4.3 -4.3,4.3 z m 0,-25.7 c -2.4,0 -4.3,-1.9 -4.3,-4.3 0,-2.4 1.9,-4.3 4.3,-4.3 2.4,0 4.3,1.9 4.3,4.3 0,2.4 -1.9,4.3 -4.3,4.3 z m 0,-25.6 c -2.4,0 -4.3,-1.9 -4.3,-4.3 0,-2.4 1.9,-4.3 4.3,-4.3 2.4,0 4.3,1.9 4.3,4.3 0,2.3 -1.9,4.3 -4.3,4.3 z m 13.4,38.5 c -2.4,0 -4.3,-1.9 -4.3,-4.3 0,-2.4 1.9,-4.3 4.3,-4.3 2.4,0 4.3,1.9 4.3,4.3 0,2.3 -1.9,4.3 -4.3,4.3 z m 0,-25.7 c -2.4,0 -4.3,-1.9 -4.3,-4.3 0,-2.4 1.9,-4.3 4.3,-4.3 2.4,0 4.3,1.9 4.3,4.3 0,2.4 -1.9,4.3 -4.3,4.3 z m 0,-25.7 c -2.4,0 -4.3,-1.9 -4.3,-4.3 0,-2.4 1.9,-4.3 4.3,-4.3 2.4,0 4.3,1.9 4.3,4.3 0,2.4 -1.9,4.3 -4.3,4.3 z m 0,-25.7 c -2.4,0 -4.3,-1.9 -4.3,-4.3 0,-2.4 1.9,-4.3 4.3,-4.3 2.4,0 4.3,1.9 4.3,4.3 0,2.4 -1.9,4.3 -4.3,4.3 z m 13.4,38.6 c -2.4,0 -4.3,-1.9 -4.3,-4.3 0,-2.4 1.9,-4.3 4.3,-4.3 2.4,0 4.3,1.9 4.3,4.3 0,2.3 -1.9,4.3 -4.3,4.3 z m 0,-25.7 c -2.4,0 -4.3,-1.9 -4.3,-4.3 0,-2.4 1.9,-4.3 4.3,-4.3 2.4,0 4.3,1.9 4.3,4.3 0,2.3 -1.9,4.3 -4.3,4.3 z m 0,-25.7 c -2.4,0 -4.3,-1.9 -4.3,-4.3 0,-2.4 1.9,-4.3 4.3,-4.3 2.4,0 4.3,1.9 4.3,4.3 0,2.4 -1.9,4.3 -4.3,4.3 z m 13.4,12.8 c -2.4,0 -4.3,-1.9 -4.3,-4.3 0,-2.4 1.9,-4.3 4.3,-4.3 2.4,0 4.3,1.9 4.3,4.3 0,2.4 -1.9,4.3 -4.3,4.3 z m 0,-25.6 c -2.4,0 -4.3,-1.9 -4.3,-4.3 0,-2.4 1.9,-4.3 4.3,-4.3 2.4,0 4.3,1.9 4.3,4.3 0,2.4 -1.9,4.3 -4.3,4.3 z"
       class="st1"
       id="XMLID_18373_"
       inkscape:connector-curvature="0"
       style="fill:#ffffff;fill-opacity:1" /><g
       id="XMLID_18254_"
       style="fill:#ffffff;fill-opacity:1"><circle
         r="4.3000002"
         cy="154.10001"
         cx="82.900002"
         class="st1"
         id="XMLID_18369_"
         sodipodi:cx="82.900002"
         sodipodi:cy="154.10001"
         sodipodi:rx="4.3000002"
         sodipodi:ry="4.3000002"
         style="fill:#ffffff;fill-opacity:1"
         d="m 87.200002,154.10001 c 0,2.37482 -1.925176,4.3 -4.3,4.3 -2.374825,0 -4.300001,-1.92518 -4.300001,-4.3 0,-2.37483 1.925176,-4.3 4.300001,-4.3 2.374824,0 4.3,1.92517 4.3,4.3 z" /><path
         d="m 69.5,85.5 c -2.4,0 -4.3,1.9 -4.3,4.3 0,2.4 1.9,4.3 4.3,4.3 2.4,0 4.3,-1.9 4.3,-4.3 0,-0.1 0,-0.2 0,-0.3 l -0.6,-1.9 c -0.7,-1.2 -2.1,-2.1 -3.7,-2.1 z"
         class="st1"
         id="XMLID_18371_"
         inkscape:connector-curvature="0"
         style="fill:#ffffff;fill-opacity:1" /><circle
         r="4.3000002"
         cy="166.89999"
         cx="69.5"
         class="st1"
         id="XMLID_18376_"
         sodipodi:cx="69.5"
         sodipodi:cy="166.89999"
         sodipodi:rx="4.3000002"
         sodipodi:ry="4.3000002"
         style="fill:#ffffff;fill-opacity:1"
         d="m 73.8,166.89999 c 0,2.37483 -1.925175,4.3 -4.3,4.3 -2.374825,0 -4.3,-1.92517 -4.3,-4.3 0,-2.37482 1.925175,-4.3 4.3,-4.3 2.374825,0 4.3,1.92518 4.3,4.3 z" /><circle
         r="4.3000002"
         cy="141.2"
         cx="69.5"
         class="st1"
         id="XMLID_18381_"
         sodipodi:cx="69.5"
         sodipodi:cy="141.2"
         sodipodi:rx="4.3000002"
         sodipodi:ry="4.3000002"
         style="fill:#ffffff;fill-opacity:1"
         d="m 73.8,141.2 c 0,2.37482 -1.925175,4.3 -4.3,4.3 -2.374825,0 -4.3,-1.92518 -4.3,-4.3 0,-2.37483 1.925175,-4.3 4.3,-4.3 2.374825,0 4.3,1.92517 4.3,4.3 z" /><circle
         r="4.3000002"
         cy="128.39999"
         cx="56.099998"
         class="st1"
         id="XMLID_18386_"
         sodipodi:cx="56.099998"
         sodipodi:cy="128.39999"
         sodipodi:rx="4.3000002"
         sodipodi:ry="4.3000002"
         style="fill:#ffffff;fill-opacity:1"
         d="m 60.399999,128.39999 c 0,2.37483 -1.925176,4.3 -4.300001,4.3 -2.374824,0 -4.3,-1.92517 -4.3,-4.3 0,-2.37482 1.925176,-4.3 4.3,-4.3 2.374825,0 4.300001,1.92518 4.300001,4.3 z" /><circle
         r="4.3000002"
         cy="115.6"
         cx="69.5"
         class="st1"
         id="XMLID_18388_"
         sodipodi:cx="69.5"
         sodipodi:cy="115.6"
         sodipodi:rx="4.3000002"
         sodipodi:ry="4.3000002"
         style="fill:#ffffff;fill-opacity:1"
         d="m 73.8,115.6 c 0,2.37482 -1.925175,4.3 -4.3,4.3 -2.374825,0 -4.3,-1.92518 -4.3,-4.3 0,-2.37483 1.925175,-4.3 4.3,-4.3 2.374825,0 4.3,1.92517 4.3,4.3 z" /><circle
         r="4.3000002"
         cy="154.10001"
         cx="56.099998"
         class="st1"
         id="XMLID_18389_"
         sodipodi:cx="56.099998"
         sodipodi:cy="154.10001"
         sodipodi:rx="4.3000002"
         sodipodi:ry="4.3000002"
         style="fill:#ffffff;fill-opacity:1"
         d="m 60.399999,154.10001 c 0,2.37482 -1.925176,4.3 -4.300001,4.3 -2.374824,0 -4.3,-1.92518 -4.3,-4.3 0,-2.37483 1.925176,-4.3 4.3,-4.3 2.374825,0 4.300001,1.92517 4.300001,4.3 z" /><path
         d="M 66.8,67.6 65.3,63 c -0.1,0.4 -0.2,0.8 -0.2,1.2 0.1,1.4 0.7,2.6 1.7,3.4 z"
         class="st1"
         id="XMLID_18390_"
         inkscape:connector-curvature="0"
         style="fill:#ffffff;fill-opacity:1" /><circle
         r="4.3000002"
         cy="77"
         cx="29.299999"
         class="st1"
         id="XMLID_18391_"
         sodipodi:cx="29.299999"
         sodipodi:cy="77"
         sodipodi:rx="4.3000002"
         sodipodi:ry="4.3000002"
         style="fill:#ffffff;fill-opacity:1"
         d="m 33.599999,77 c 0,2.374825 -1.925175,4.3 -4.3,4.3 -2.374824,0 -4.3,-1.925175 -4.3,-4.3 0,-2.374825 1.925176,-4.3 4.3,-4.3 2.374825,0 4.3,1.925175 4.3,4.3 z" /><circle
         r="4.3000002"
         cy="51.400002"
         cx="29.299999"
         class="st1"
         id="XMLID_18392_"
         sodipodi:cx="29.299999"
         sodipodi:cy="51.400002"
         sodipodi:rx="4.3000002"
         sodipodi:ry="4.3000002"
         style="fill:#ffffff;fill-opacity:1"
         d="m 33.599999,51.400002 c 0,2.374824 -1.925175,4.3 -4.3,4.3 -2.374824,0 -4.3,-1.925176 -4.3,-4.3 0,-2.374825 1.925176,-4.300001 4.3,-4.300001 2.374825,0 4.3,1.925176 4.3,4.300001 z" /><circle
         r="4.3000002"
         cy="25.700001"
         cx="29.299999"
         class="st1"
         id="XMLID_18393_"
         sodipodi:cx="29.299999"
         sodipodi:cy="25.700001"
         sodipodi:rx="4.3000002"
         sodipodi:ry="4.3000002"
         style="fill:#ffffff;fill-opacity:1"
         d="m 33.599999,25.700001 c 0,2.374824 -1.925175,4.3 -4.3,4.3 -2.374824,0 -4.3,-1.925176 -4.3,-4.3 0,-2.374825 1.925176,-4.3 4.3,-4.3 2.374825,0 4.3,1.925175 4.3,4.3 z" /><circle
         r="4.3000002"
         cy="12.8"
         cx="15.9"
         class="st1"
         id="XMLID_18394_"
         sodipodi:cx="15.9"
         sodipodi:cy="12.8"
         sodipodi:rx="4.3000002"
         sodipodi:ry="4.3000002"
         style="fill:#ffffff;fill-opacity:1"
         d="m 20.2,12.8 c 0,2.374825 -1.925176,4.3 -4.3,4.3 -2.374825,0 -4.300001,-1.925175 -4.300001,-4.3 0,-2.374824 1.925176,-4.3 4.300001,-4.3 2.374824,0 4.3,1.925176 4.3,4.3 z" /><path
         d="m 31.8,99.1 1.6,5.1 c 0.2,-0.5 0.3,-1 0.3,-1.5 0,-1.5 -0.8,-2.8 -1.9,-3.6 z"
         class="st1"
         id="XMLID_18395_"
         inkscape:connector-curvature="0"
         style="fill:#ffffff;fill-opacity:1" /><path
         d="m 78.6,128.4 c 0,2.4 1.9,4.3 4.3,4.3 1.8,0 3.3,-1 4,-2.5 l -1.8,-5.6 c -0.6,-0.4 -1.4,-0.6 -2.2,-0.6 -2.4,0.1 -4.3,2 -4.3,4.4 z"
         class="st1"
         id="XMLID_18396_"
         inkscape:connector-curvature="0"
         style="fill:#ffffff;fill-opacity:1" /><path
         d="m 20.3,38.5 c 0,-2.4 -1.9,-4.3 -4.3,-4.3 -1.9,0 -3.4,1.2 -4.1,2.8 l 1.7,5.2 c 0.7,0.5 1.5,0.7 2.4,0.7 2.3,0 4.3,-2 4.3,-4.4 z"
         class="st1"
         id="XMLID_18397_"
         inkscape:connector-curvature="0"
         style="fill:#ffffff;fill-opacity:1" /><circle
         r="4.3000002"
         cy="64.199997"
         cx="42.700001"
         class="st1"
         id="XMLID_18398_"
         sodipodi:cx="42.700001"
         sodipodi:cy="64.199997"
         sodipodi:rx="4.3000002"
         sodipodi:ry="4.3000002"
         style="fill:#ffffff;fill-opacity:1"
         d="m 47.000001,64.199997 c 0,2.374824 -1.925176,4.3 -4.3,4.3 -2.374825,0 -4.3,-1.925176 -4.3,-4.3 0,-2.374825 1.925175,-4.3 4.3,-4.3 2.374824,0 4.3,1.925175 4.3,4.3 z" /><path
         d="m 60.5,179.8 c 0,-2.4 -1.9,-4.3 -4.2,-4.3 l 2.1,6.4 h 1.7 c 0.2,-0.7 0.4,-1.4 0.4,-2.1 z"
         class="st1"
         id="XMLID_18399_"
         inkscape:connector-curvature="0"
         style="fill:#ffffff;fill-opacity:1" /><path
         d="m 43.9,137.1 2.2,6.9 c 0.6,-0.7 0.9,-1.7 0.9,-2.7 0.1,-2 -1.3,-3.7 -3.1,-4.2 z"
         class="st1"
         id="XMLID_18400_"
         inkscape:connector-curvature="0"
         style="fill:#ffffff;fill-opacity:1" /><path
         d="m 87.3,179.8 c 0,-2.4 -1.9,-4.3 -4.3,-4.3 -2.4,0 -4.3,1.9 -4.3,4.3 0,0.8 0.2,1.5 0.5,2.1 h 7.6 c 0.3,-0.7 0.5,-1.4 0.5,-2.1 z"
         class="st1"
         id="XMLID_18401_"
         inkscape:connector-curvature="0"
         style="fill:#ffffff;fill-opacity:1" /><path
         d="m 29.3,4.3 c 2.4,0 4.3,-1.9 4.3,-4.3 H 25 c 0,2.4 1.9,4.3 4.3,4.3 z"
         class="st1"
         id="XMLID_18402_"
         inkscape:connector-curvature="0"
         style="fill:#ffffff;fill-opacity:1" /><path
         d="m 97.3,162.7 c -0.3,-0.1 -0.6,-0.1 -1,-0.1 -2.4,0 -4.3,1.9 -4.3,4.3 0,2.4 1.9,4.3 4.3,4.3 1.3,0 2.4,-0.6 3.2,-1.5 l -2.2,-7 z"
         class="st1"
         id="XMLID_18403_"
         inkscape:connector-curvature="0"
         style="fill:#ffffff;fill-opacity:1" /><circle
         r="4.3000002"
         cy="102.7"
         cx="56.099998"
         class="st1"
         id="XMLID_18404_"
         sodipodi:cx="56.099998"
         sodipodi:cy="102.7"
         sodipodi:rx="4.3000002"
         sodipodi:ry="4.3000002"
         style="fill:#ffffff;fill-opacity:1"
         d="m 60.399999,102.7 c 0,2.37482 -1.925176,4.3 -4.300001,4.3 -2.374824,0 -4.3,-1.92518 -4.3,-4.3 0,-2.37483 1.925176,-4.300003 4.3,-4.300003 2.374825,0 4.300001,1.925173 4.300001,4.300003 z" /><circle
         r="4.3000002"
         cy="115.6"
         cx="42.700001"
         class="st1"
         id="XMLID_18405_"
         sodipodi:cx="42.700001"
         sodipodi:cy="115.6"
         sodipodi:rx="4.3000002"
         sodipodi:ry="4.3000002"
         style="fill:#ffffff;fill-opacity:1"
         d="m 47.000001,115.6 c 0,2.37482 -1.925176,4.3 -4.3,4.3 -2.374825,0 -4.3,-1.92518 -4.3,-4.3 0,-2.37483 1.925175,-4.3 4.3,-4.3 2.374824,0 4.3,1.92517 4.3,4.3 z" /><path
         d="M 1.3,4.2 C 1.7,4.3 2.1,4.4 2.5,4.4 4.9,4.4 6.8,2.5 6.8,0.1 H 0 l 1.3,4.1 z"
         class="st1"
         id="XMLID_18406_"
         inkscape:connector-curvature="0"
         style="fill:#ffffff;fill-opacity:1" /><circle
         r="4.3000002"
         cy="51.400002"
         cx="56.099998"
         class="st1"
         id="XMLID_18407_"
         sodipodi:cx="56.099998"
         sodipodi:cy="51.400002"
         sodipodi:rx="4.3000002"
         sodipodi:ry="4.3000002"
         style="fill:#ffffff;fill-opacity:1"
         d="m 60.399999,51.400002 c 0,2.374824 -1.925176,4.3 -4.300001,4.3 -2.374824,0 -4.3,-1.925176 -4.3,-4.3 0,-2.374825 1.925176,-4.300001 4.3,-4.300001 2.374825,0 4.300001,1.925176 4.300001,4.300001 z" /><path
         d="m 54.7,29.8 -2.1,-6.6 c -0.5,0.7 -0.8,1.6 -0.8,2.5 0,1.9 1.2,3.5 2.9,4.1 z"
         class="st1"
         id="XMLID_18408_"
         inkscape:connector-curvature="0"
         style="fill:#ffffff;fill-opacity:1" /><circle
         r="4.3000002"
         cy="12.8"
         cx="42.700001"
         class="st1"
         id="XMLID_18409_"
         sodipodi:cx="42.700001"
         sodipodi:cy="12.8"
         sodipodi:rx="4.3000002"
         sodipodi:ry="4.3000002"
         style="fill:#ffffff;fill-opacity:1"
         d="m 47.000001,12.8 c 0,2.374825 -1.925176,4.3 -4.3,4.3 -2.374825,0 -4.3,-1.925175 -4.3,-4.3 0,-2.374824 1.925175,-4.3 4.3,-4.3 2.374824,0 4.3,1.925176 4.3,4.3 z" /><circle
         r="4.3000002"
         cy="77"
         cx="56.099998"
         class="st1"
         id="XMLID_18410_"
         sodipodi:cx="56.099998"
         sodipodi:cy="77"
         sodipodi:rx="4.3000002"
         sodipodi:ry="4.3000002"
         style="fill:#ffffff;fill-opacity:1"
         d="m 60.399999,77 c 0,2.374825 -1.925176,4.3 -4.300001,4.3 -2.374824,0 -4.3,-1.925175 -4.3,-4.3 0,-2.374825 1.925176,-4.3 4.3,-4.3 2.374825,0 4.300001,1.925175 4.300001,4.3 z" /><circle
         r="4.3000002"
         cy="38.5"
         cx="42.700001"
         class="st1"
         id="XMLID_18411_"
         sodipodi:cx="42.700001"
         sodipodi:cy="38.5"
         sodipodi:rx="4.3000002"
         sodipodi:ry="4.3000002"
         style="fill:#ffffff;fill-opacity:1"
         d="m 47.000001,38.5 c 0,2.374825 -1.925176,4.3 -4.3,4.3 -2.374825,0 -4.3,-1.925175 -4.3,-4.3 0,-2.374825 1.925175,-4.3 4.3,-4.3 2.374824,0 4.3,1.925175 4.3,4.3 z" /><circle
         r="4.3000002"
         cy="89.900002"
         cx="42.700001"
         class="st1"
         id="XMLID_18412_"
         sodipodi:cx="42.700001"
         sodipodi:cy="89.900002"
         sodipodi:rx="4.3000002"
         sodipodi:ry="4.3000002"
         style="fill:#ffffff;fill-opacity:1"
         d="m 47.000001,89.900002 c 0,2.374824 -1.925176,4.3 -4.3,4.3 -2.374825,0 -4.3,-1.925176 -4.3,-4.3 0,-2.374825 1.925175,-4.300001 4.3,-4.300001 2.374824,0 4.3,1.925176 4.3,4.300001 z" /></g></g></svg>