<?xml version="1.0" encoding="utf-8"?>
<!-- Generator: Adobe Illustrator 18.1.1, SVG Export Plug-In . SVG Version: 6.00 Build 0)  -->
<svg version="1.1" id="Layer_1" xmlns="http://www.w3.org/2000/svg" xmlns:xlink="http://www.w3.org/1999/xlink" x="0px" y="0px"
	 viewBox="0 0 178 178" enable-background="new 0 0 178 178" xml:space="preserve">
<defs>
	<circle id="SVGID_1_" cx="89" cy="89" r="87.9"/>
</defs>
<clipPath id="SVGID_2_">
	<use xlink:href="#SVGID_1_"  overflow="visible"/>
</clipPath>
<radialGradient id="SVGID_3_" cx="93" cy="18.0001" r="181.6259" gradientUnits="userSpaceOnUse">
	<stop  offset="0.5661" style="stop-color:#80B541"/>
	<stop  offset="0.6237" style="stop-color:#7DB13F"/>
	<stop  offset="0.6998" style="stop-color:#77A93B"/>
	<stop  offset="0.7862" style="stop-color:#6D9C35"/>
	<stop  offset="0.8803" style="stop-color:#5C882B"/>
	<stop  offset="0.9796" style="stop-color:#476F1D"/>
	<stop  offset="1" style="stop-color:#42691A"/>
</radialGradient>
<path clip-path="url(#SVGID_2_)" fill="url(#SVGID_3_)" d="M178,166c0,6.6-5.4,12-12,12H12c-6.6,0-12-5.4-12-12V12C0,5.4,5.4,0,12,0
	h154c6.6,0,12,5.4,12,12V166z"/>
<g clip-path="url(#SVGID_2_)">
	<linearGradient id="SVGID_4_" gradientUnits="userSpaceOnUse" x1="159.5578" y1="102.3018" x2="57.2433" y2="69.1105">
		<stop  offset="0.5661" style="stop-color:#FFFFFF"/>
		<stop  offset="0.6742" style="stop-color:#F9F9F9"/>
		<stop  offset="0.8169" style="stop-color:#E9E9E9"/>
		<stop  offset="0.9783" style="stop-color:#CDCDCD"/>
		<stop  offset="1" style="stop-color:#C9C9C9"/>
	</linearGradient>
	<path fill="url(#SVGID_4_)" d="M136.2,57.3c0,0-10.3,32.2-11.2,37l-12.1-37h-12.4l-11.7,37c-0.4-2.2-3-10.6-5.6-18.8L66,79.7
		l15.3,41.1h14.5l10.9-30.4l11.3,30.4h14.6l23.2-63.5H136.2z"/>
	<polygon fill="#FFFFFF" points="83.1,75.5 82.8,74.5 78.5,61.1 77.2,57.2 22.2,57.2 22.2,75.5 40.7,75.5 40.7,120.8 58.6,120.8 
		58.6,75.5 64.4,75.5 83.1,75.5 	"/>
</g>
</svg>
