<?xml version="1.0" encoding="UTF-8"?>
<svg width="64px" height="64px" viewBox="0 0 64 64" version="1.1" xmlns="http://www.w3.org/2000/svg" xmlns:xlink="http://www.w3.org/1999/xlink">
    <!-- Generator: Sketch 64 (93537) - https://sketch.com -->
    <title>icon</title>
    <desc>Created with Sketch.</desc>
    <g id="Page-1" stroke="none" stroke-width="1" fill="none" fill-rule="evenodd">
        <g id="icon">
            <path d="M32.0247253,56.4470296 C45.5446405,56.4470296 56.5095672,45.4867551 56.5095672,31.9727949 C56.5095672,18.4587973 45.5658669,7.47733261 32.0247253,7.47733261 C18.4835278,7.47733261 7.53987018,18.4375151 7.53987018,31.9515684 C7.53987018,45.4655287 18.5048287,56.4470296 32.0247253,56.4470296 Z" id="Path" fill="#2C1338" fill-rule="nonzero"></path>
            <path d="M44.3646061,39.4766061 C44.2193939,39.4766061 44.0744242,39.4690909 43.929697,39.4659394 C43.7730909,39.4627879 43.6164848,39.4618182 43.4606061,39.4547879 C43.2686061,39.4458182 43.0773333,39.4300606 42.8858182,39.4157576 C42.7406061,39.4050909 42.5949091,39.3975758 42.4499394,39.3835152 C42.2012121,39.36 41.9539394,39.3272727 41.7061818,39.294303 C41.5243636,39.2690909 41.342303,39.2419394 41.1612121,39.2123636 C40.9313939,39.1747879 40.7018182,39.137697 40.4739394,39.0921212 C40.3301818,39.0635152 40.1876364,39.0286061 40.0450909,38.9968485 C39.8589091,38.9551515 39.6729697,38.9153939 39.4887273,38.8693333 C39.3389091,38.8312727 39.1912727,38.7878788 39.0424242,38.7469091 C38.8666667,38.6981818 38.6904242,38.649697 38.5161212,38.5961212 C38.3658182,38.5500606 38.2169697,38.4996364 38.0681212,38.4499394 C37.8972121,38.3932121 37.7267879,38.3362424 37.5578182,38.2746667 C37.4089697,38.2206061 37.2618182,38.1629091 37.1141818,38.1052121 C36.9469091,38.0397576 36.7801212,37.9735758 36.6147879,37.904 C36.4693333,37.8421818 36.3248485,37.7786667 36.1813333,37.7139394 C36.0164848,37.6392727 35.8523636,37.5631515 35.6894545,37.4843636 C35.5481212,37.416 35.4072727,37.3461818 35.2678788,37.2741818 C35.1049697,37.1905455 34.9435152,37.1042424 34.7830303,37.0167273 C34.6470303,36.9415758 34.5112727,36.8664242 34.3769697,36.7881212 C34.2152727,36.6947879 34.0555152,36.5973333 33.8962424,36.4989091 C33.7670303,36.4189091 33.6373333,36.3391515 33.5100606,36.256 C33.3481212,36.1510303 33.1893333,36.0414545 33.0305455,35.9313939 C32.9093333,35.8467879 32.7873939,35.7641212 32.6673939,35.6773333 C32.5030303,35.5575758 32.3418182,35.4322424 32.1806061,35.3076364 C32.0717576,35.2230303 31.9614545,35.1408485 31.8540606,35.0540606 C31.6766061,34.9100606 31.5035152,34.7597576 31.3304242,34.6094545 C31.2436364,34.5340606 31.1546667,34.4615758 31.0688485,34.3849697 C30.8126061,34.1539394 30.5607273,33.9163636 30.3153939,33.6707879 C30.0259394,33.3820606 29.7500606,33.0829091 29.4814545,32.7791515 C29.3958788,32.6826667 29.3153939,32.5832727 29.2322424,32.4853333 C29.0506667,32.2717576 28.8732121,32.0557576 28.7015758,31.8351515 C28.6128485,31.7212121 28.5258182,31.606303 28.4397576,31.4904242 C28.2766061,31.2712727 28.1192727,31.0487273 27.9658182,30.8237576 C27.8901818,30.7127273 27.8133333,30.6031515 27.7403636,30.4909091 C27.5553939,30.2075152 27.3786667,29.9195152 27.2092121,29.6273939 C27.1779394,29.574303 27.144,29.5224242 27.1134545,29.4683636 C26.9168485,29.1226667 26.7321212,28.7706667 26.5573333,28.4147879 C26.5054545,28.3095758 26.4589091,28.2024242 26.4087273,28.0962424 C26.2884848,27.84 26.1721212,27.5830303 26.0630303,27.3221818 C26.008,27.1912727 25.9558788,27.0598788 25.904,26.9277576 C25.8065455,26.6802424 25.7144242,26.4305455 25.6266667,26.1793939 C25.5815758,26.0492121 25.5355152,25.92 25.4926061,25.7893333 C25.3985455,25.4991515 25.3122424,25.2070303 25.2312727,24.9132121 C25.2067879,24.824 25.1786667,24.7352727 25.1549091,24.6455758 C25.0555152,24.2630303 24.9675152,23.8781091 24.8911515,23.4908606 C24.8712727,23.3915879 24.8567273,23.2909576 24.8387879,23.1916848 C24.7854545,22.8996848 24.7372121,22.6067636 24.6969697,22.3120727 C24.678303,22.1739152 24.6625455,22.0357333 24.6470303,21.8966545 C24.6164848,21.6328242 24.5910303,21.368097 24.5713939,21.1024727 C24.5609697,20.9616 24.550303,20.8207515 24.5427879,20.6798788 C24.5275152,20.3914424 24.5202424,20.1025697 24.5173333,19.8132364 C24.5163636,19.7014545 24.5117576,19.5896485 24.5122424,19.4778667 C24.5153939,19.0937212 24.5270303,18.7096 24.552,18.3250182 C23.2642424,19.0311273 22.076097,19.9192242 21.0310303,20.9642909 C14.9682182,27.0271515 14.9682182,36.8928485 21.0310303,42.9561212 C27.094303,49.0189091 36.9595152,49.0181818 43.0218182,42.9561212 C44.0673939,41.9105455 44.9553939,40.7224242 45.6615758,39.4346667 C45.2591515,39.4610909 44.8569697,39.4717576 44.4555152,39.4734545 C44.4252121,39.4734545 44.3946667,39.4766061 44.3646061,39.4766061 Z" id="Path" fill="#A876F5"></path>
            <path d="M29.0867879,16.6937212 C29.0538182,16.8658667 29.025697,17.038497 28.998303,17.211103 C28.9796364,17.3331879 28.9563636,17.4552727 28.9396364,17.5773333 C28.9076364,17.8210424 28.8850909,18.0647758 28.8647273,18.3084848 C28.8574545,18.3943273 28.8453333,18.4801939 28.8395152,18.5660606 C28.8167273,18.8965091 28.8046061,19.2265455 28.80336,19.5556606 C28.8029091,19.6263273 28.8077576,19.6956364 28.8087273,19.7662788 C28.8109091,20.0247515 28.816,20.2832242 28.8310303,20.5412364 C28.838303,20.659297 28.8516364,20.7769212 28.8615758,20.8949576 C28.8785455,21.1038061 28.8955152,21.3126303 28.9204848,21.5201212 C28.9367273,21.6515879 28.9590303,21.7821818 28.9781818,21.9131879 C29.0067879,22.1059394 29.0353939,22.2986667 29.0712727,22.4900606 C29.0967273,22.6264485 29.1270303,22.7619394 29.1561212,22.8978909 C29.1958788,23.0821333 29.2361212,23.2659152 29.2821818,23.4483636 C29.3170909,23.5860848 29.3556364,23.7229333 29.3941818,23.8593212 C29.4441212,24.0377455 29.4964848,24.2152727 29.5527273,24.3915152 C29.5966061,24.5287273 29.6436364,24.6647273 29.6909091,24.8007273 C29.7517576,24.9740606 29.8157576,25.1464242 29.8824242,25.3175758 C29.9352727,25.4516364 29.9893333,25.5859394 30.0455758,25.7187879 C30.1175758,25.8887273 30.193697,26.0567273 30.2715152,26.224 C30.3323636,26.3546667 30.3934545,26.4846061 30.4579394,26.6135758 C30.5415758,26.7803636 30.6295758,26.9449697 30.7195152,27.1090909 C30.7873939,27.2332121 30.8550303,27.3585455 30.9265455,27.4814545 C31.0227879,27.6465455 31.1246061,27.808 31.2271515,27.969697 C31.3013333,28.0875152 31.3738182,28.2055758 31.4511515,28.3207273 C31.5624242,28.4867879 31.6809697,28.6487273 31.7990303,28.8104242 C31.8763636,28.9163636 31.9505455,29.0237576 32.0305455,29.128 C32.1655758,29.3037576 32.3093333,29.4741818 32.4523636,29.6448485 C32.5233939,29.7294545 32.5910303,29.8172121 32.6642424,29.9006061 C32.8848485,30.1515152 33.1127273,30.3970909 33.3512727,30.6353939 C33.5895758,30.873697 33.8353939,31.102303 34.0867879,31.3226667 C34.1677576,31.3939394 34.2521212,31.4586667 34.3340606,31.5275152 C34.5076364,31.673697 34.6814545,31.8201212 34.8608485,31.9578182 C34.96,32.033697 35.0630303,32.1049697 35.1636364,32.1781818 C35.3311515,32.3008485 35.4989091,32.4232727 35.6705455,32.5386667 C35.7793939,32.6116364 35.8906667,32.6795152 36.0007273,32.7498182 C36.1701818,32.8574545 36.3401212,32.9638788 36.5132121,33.0644848 C36.6276364,33.1316364 36.7442424,33.1941818 36.8601212,33.257697 C37.033697,33.3529697 37.208,33.446303 37.3852121,33.5350303 C37.5037576,33.5939394 37.6230303,33.6504242 37.7427879,33.7061818 C37.9226667,33.790303 38.1037576,33.8717576 38.286303,33.9486061 C38.4060606,33.9995152 38.5267879,34.0482424 38.6475152,34.0962424 C38.8344242,34.1694545 39.0227879,34.2387879 39.2118788,34.3049697 C39.3321212,34.3471515 39.4523636,34.3881212 39.5735758,34.4276364 C39.7682424,34.489697 39.9643636,34.5473939 40.1612121,34.6024242 C40.2802424,34.6358788 40.3987879,34.6693333 40.5185455,34.6998788 C40.7224242,34.7512727 40.9277576,34.7968485 41.1333333,34.8407273 C41.2482424,34.8649697 41.3626667,34.8909091 41.4780606,34.9122424 C41.6950303,34.9534545 41.9132121,34.9859394 42.1318788,35.017697 C42.238303,35.0329697 42.344,35.0513939 42.4506667,35.0647273 C42.6904242,35.0938182 42.9309091,35.1144242 43.1716364,35.1328485 C43.2589091,35.1398788 43.3454545,35.1500606 43.4327273,35.1551515 C43.7386667,35.1733333 44.0448485,35.1818182 44.3522424,35.1818182 C44.3755152,35.1818182 44.398303,35.1842424 44.4215758,35.1842424 C44.7558788,35.182303 45.0909091,35.1699394 45.4259394,35.1471515 C45.4928485,35.1425455 45.56,35.1326061 45.6271515,35.1272727 C45.8882424,35.1064242 46.1493333,35.0812121 46.4104242,35.0467879 C46.5338182,35.030303 46.6569697,35.0070303 46.7798788,34.9873939 C46.9510303,34.9604848 47.1224242,34.9328485 47.2933333,34.8996364 C48.2574545,29.8627879 46.6766061,24.6196364 43.0218182,20.9642909 C39.368,17.3103758 34.1255758,15.7278061 29.0867879,16.6937212 Z" id="Path" fill="#A876F5"></path>
            <path d="M32.0247273,0.0833924848 C14.4175758,0.0833924848 0.145922182,14.3533576 0.145922182,31.9624242 C0.145922182,49.5709091 14.4175758,63.8409697 32.0247273,63.8409697 C49.6317576,63.8409697 63.9035152,49.5709091 63.9035152,31.9624242 C63.9035152,14.3533576 49.6317576,0.0833924848 32.0247273,0.0833924848 Z M51.1469091,37.2627879 L51.1454545,37.2673939 L50.8227879,38.4358788 L50.7769697,38.4482424 C49.7985455,41.2775758 48.1835152,43.8659394 46.0579394,45.9917576 C42.1895758,49.8603636 37.1078788,51.7949091 32.0264242,51.7949091 C26.9447273,51.7949091 21.8635152,49.8603636 17.9949818,45.9917576 C10.2579394,38.254303 10.2579394,25.6652121 17.9945455,17.9289939 C20.1199758,15.8035636 22.7086788,14.187903 25.5384242,13.2090182 L25.5510303,13.1638545 L26.721697,12.840097 C33.6058182,10.9373333 41.016,12.8865939 46.0579394,17.9289939 C51.0993939,22.9709576 53.049697,30.3789091 51.1469091,37.2627879 Z" id="Shape" fill="#A876F5"></path>
        </g>
    </g>
</svg>