<?xml version="1.0" encoding="UTF-8"?>
<svg
	width="20px"
	height="20px"
	viewBox="0 0 20 20"
	version="1.1"
	xmlns="http://www.w3.org/2000/svg"
	xmlns:xlink="http://www.w3.org/1999/xlink"
>
	<g id="Page-1" stroke="none" stroke-width="1" fill="none" fill-rule="evenodd">
		<g id="favicon">
			<path
				d="M10,20 C15.521749,20 20,15.5236502 20,10.0043346 C20,4.4850038 15.5304183,0 10,0 C4.46956654,0 0,4.47631179 0,9.9956654 C0,15.514981 4.47825856,20 10,20 Z"
				id="Path"
				fill="#2C1338"
				fill-rule="nonzero"
			></path>
			<path
				d="M13.8709506,12.3571863 C13.8253232,12.3571863 13.7798479,12.3548289 13.7344487,12.3538403 C13.6853232,12.3528517 13.6362738,12.3525475 13.5873004,12.3503422 C13.5270722,12.3475285 13.4670722,12.3425856 13.4069962,12.3380989 C13.3614449,12.3347529 13.3157414,12.3323954 13.2702662,12.3279848 C13.1922433,12.3206084 13.1146768,12.3103422 13.0369582,12.3 C12.979924,12.2920913 12.9228137,12.2835741 12.8660076,12.2742966 C12.7939163,12.2625095 12.7219011,12.2508745 12.6504183,12.2365779 C12.6053992,12.2276046 12.5606084,12.216654 12.5158935,12.206692 C12.4574905,12.1936122 12.3991635,12.1811407 12.3413688,12.166692 C12.2943726,12.1547529 12.2480608,12.1411407 12.2013688,12.128289 C12.1462357,12.1130038 12.0909506,12.0977947 12.0362738,12.0809886 C11.9891255,12.0665399 11.9424335,12.0507224 11.8957414,12.0351331 C11.8421293,12.0173384 11.7886692,11.9994677 11.7356654,11.9801521 C11.6889734,11.9631939 11.6428137,11.9450951 11.5965019,11.9269962 C11.5440304,11.9064639 11.491711,11.8857034 11.4398479,11.8638783 C11.3942205,11.8444867 11.3488973,11.8245627 11.3038783,11.8042586 C11.2521673,11.7808365 11.2006844,11.7569582 11.1495817,11.7322433 C11.1052471,11.7107985 11.0610646,11.6888973 11.0173384,11.6663118 C10.9662357,11.640076 10.9155894,11.6130038 10.8652471,11.5855513 C10.8225856,11.5619772 10.78,11.538403 10.7378707,11.5138403 C10.6871483,11.4845627 10.6370342,11.4539924 10.5870722,11.4231179 C10.5465399,11.3980228 10.5058555,11.3730038 10.4659316,11.3469202 C10.4151331,11.3139924 10.3653232,11.2796198 10.3155133,11.2450951 C10.2774905,11.2185551 10.2392395,11.1926236 10.201597,11.1653992 C10.150038,11.1278327 10.0995437,11.0885171 10.0488973,11.0494297 C10.0147529,11.0228897 9.98015209,10.9971103 9.94646388,10.9698859 C9.89079848,10.9247148 9.8365019,10.8775665 9.78220532,10.8304183 C9.75498099,10.8067681 9.72707224,10.7840304 9.70015209,10.76 C9.61977186,10.6875285 9.54076046,10.6130038 9.46380228,10.5359696 C9.3730038,10.4453992 9.28646388,10.3515589 9.20220532,10.2562738 C9.17536122,10.2260076 9.15011407,10.1948289 9.12403042,10.1641065 C9.06707224,10.0971103 9.01140684,10.0293536 8.95756654,9.96015209 C8.92973384,9.92441065 8.90243346,9.88836502 8.87551331,9.85201521 C8.82425856,9.78326996 8.77490494,9.71346008 8.72676806,9.64288973 C8.70311787,9.60806084 8.67893536,9.57368821 8.65612167,9.53847909 C8.59802281,9.44958175 8.54258555,9.35923954 8.48942966,9.26760456 C8.47961977,9.25095057 8.46897338,9.23467681 8.45939163,9.21771863 C8.39771863,9.10927757 8.33977186,8.99885932 8.28494297,8.88722433 C8.2686692,8.85422053 8.25406844,8.82060837 8.238327,8.78730038 C8.20060837,8.70692015 8.16418251,8.62631179 8.12988593,8.54448669 C8.11269962,8.50342205 8.09627376,8.46220532 8.08,8.42076046 C8.04942966,8.34311787 8.02053232,8.26479087 7.9930038,8.1860076 C7.97885932,8.1451711 7.96441065,8.10463878 7.95095057,8.06365019 C7.92144487,7.97262357 7.89437262,7.88098859 7.86897338,7.78882129 C7.86129278,7.7608365 7.85247148,7.7330038 7.84501901,7.70486692 C7.81391635,7.58489734 7.78623574,7.46412167 7.76228137,7.34264639 C7.75612167,7.3115057 7.75148289,7.27993916 7.74585551,7.24879848 C7.72912548,7.15720152 7.7139924,7.06532319 7.70136882,6.97288213 C7.69551331,6.92953612 7.69057034,6.88619011 7.68570342,6.84256274 C7.67612167,6.75980228 7.66813688,6.67676046 7.66197719,6.59343726 C7.65870722,6.54924715 7.65536122,6.50506464 7.6530038,6.46087452 C7.64821293,6.37039544 7.6460076,6.27977947 7.64501901,6.18901901 C7.64471483,6.15395437 7.64334601,6.11888213 7.64342205,6.08381749 C7.64441065,5.96331559 7.64806084,5.84282129 7.65596958,5.72218251 C7.25194677,5.94368061 6.87923954,6.22226616 6.55141445,6.55009125 C4.64958175,8.45193916 4.64958175,11.546692 6.55141445,13.4486692 C8.45338403,15.3504943 11.5479848,15.3502662 13.4496578,13.4486692 C13.7776426,13.1206844 14.0561977,12.7479848 14.2777186,12.3440304 C14.1514829,12.3523194 14.0253232,12.3556654 13.8993916,12.3561977 C13.8898859,12.3561977 13.8803042,12.3571863 13.8709506,12.3571863 Z"
				id="Path"
				fill="#A876F5"
			></path>
			<path
				d="M9.07840304,5.21046388 C9.06806084,5.26446388 9.05923954,5.31861597 9.05064639,5.37276046 C9.04479087,5.41105703 9.03749049,5.44935361 9.03231939,5.48764259 C9.02220532,5.56409886 9.01520913,5.64054753 9.00874525,5.7169962 C9.00646388,5.74392395 9.0026616,5.77085932 9.0008365,5.79779468 C8.99368821,5.90146008 8.98988593,6.00498099 8.98949504,6.10822053 C8.98935361,6.13038783 8.99087452,6.15212928 8.99117871,6.17428897 C8.99186312,6.25536882 8.99346008,6.33644867 8.9981749,6.41738403 C9.00045627,6.45441825 9.00463878,6.49131559 9.00775665,6.52834221 C9.01307985,6.59385551 9.01840304,6.65936122 9.02623574,6.72444867 C9.0313308,6.76568821 9.038327,6.80665399 9.0443346,6.84774905 C9.05330798,6.90821293 9.06228137,6.9686692 9.07353612,7.02870722 C9.08152091,7.07149049 9.09102662,7.1139924 9.10015209,7.15663878 C9.11269962,7.21443346 9.12532319,7.27208365 9.13977186,7.32931559 C9.15064639,7.37252471 9.16273764,7.41544487 9.1748289,7.45822814 C9.1904943,7.51419772 9.20692015,7.56988593 9.22463878,7.6251711 C9.238327,7.66821293 9.25307985,7.71087452 9.26790875,7.75353612 C9.2869962,7.80790875 9.30707224,7.86197719 9.32798479,7.9156654 C9.34456274,7.95771863 9.36152091,7.99984791 9.3791635,8.04152091 C9.40174905,8.0948289 9.42562738,8.14752852 9.45003802,8.2 C9.46912548,8.24098859 9.48828897,8.28174905 9.50851711,8.32220532 C9.53475285,8.37452471 9.56235741,8.4261597 9.59057034,8.47764259 C9.61186312,8.51657795 9.63307985,8.55589354 9.65551331,8.59444867 C9.68570342,8.64623574 9.71764259,8.69688213 9.74980989,8.74760456 C9.77307985,8.78456274 9.79581749,8.82159696 9.82007605,8.85771863 C9.85498099,8.90980989 9.8921673,8.96060837 9.92920152,9.0113308 C9.95346008,9.04456274 9.97673004,9.07825095 10.0018251,9.11095057 C10.0442586,9.16608365 10.0892776,9.21954373 10.1341445,9.27307985 C10.1564259,9.29961977 10.1776426,9.32714829 10.2006084,9.35330798 C10.2698099,9.43201521 10.3412928,9.50904943 10.4161217,9.58380228 C10.4908745,9.65855513 10.5679848,9.73026616 10.6468441,9.79939163 C10.6722433,9.82174905 10.6987072,9.84205323 10.7244106,9.86365019 C10.7788593,9.9095057 10.833384,9.95543726 10.8896578,9.99863118 C10.9207605,10.0224335 10.9530798,10.0447909 10.9846388,10.0677567 C11.0371863,10.1062357 11.0898099,10.1446388 11.1437262,10.1808365 C11.1777947,10.2037262 11.2126996,10.225019 11.2472243,10.2470722 C11.3003802,10.2808365 11.3536882,10.3142205 11.4079848,10.3457795 C11.4438783,10.3668441 11.4804563,10.3864639 11.5168061,10.4063878 C11.5712548,10.4362738 11.6259316,10.4655513 11.6815209,10.493384 C11.7187072,10.5118631 11.7561217,10.5295817 11.7936882,10.5470722 C11.8501141,10.5734601 11.9069202,10.5990114 11.9641825,10.6231179 C12.001749,10.6390875 12.0396198,10.6543726 12.0774905,10.6694297 C12.1361217,10.6923954 12.1952091,10.7141445 12.2545247,10.7349049 C12.2922433,10.7481369 12.329962,10.7609886 12.3679848,10.773384 C12.4290494,10.7928517 12.4905703,10.8109506 12.5523194,10.8282129 C12.5896578,10.8387072 12.6268441,10.8492776 12.6644106,10.8587833 C12.728365,10.8749049 12.7927757,10.8892015 12.8572624,10.9029658 C12.893308,10.9105703 12.9292776,10.9187072 12.9653992,10.9253992 C13.0334601,10.938327 13.1019011,10.9485171 13.1704943,10.9584791 C13.2038783,10.96327 13.2370342,10.9690494 13.2704943,10.9732319 C13.3457034,10.9823574 13.4212167,10.9888213 13.496654,10.9946008 C13.5240304,10.9968061 13.5512548,11 13.5785551,11.001597 C13.6745247,11.0073004 13.7705703,11.009962 13.8669962,11.009962 C13.8742966,11.009962 13.8814449,11.0107224 13.8887452,11.0107224 C13.9936122,11.0101141 14.0987072,11.0062357 14.2038023,10.9990875 C14.2247909,10.9976426 14.2458555,10.9946008 14.2669202,10.9928517 C14.3488213,10.9863118 14.4307224,10.978403 14.5126236,10.9676046 C14.5514068,10.9624335 14.589962,10.9551331 14.6285171,10.9489734 C14.6822814,10.9405323 14.7359696,10.9318631 14.7895817,10.9214449 C15.0920152,9.34144487 14.5961217,7.69673004 13.4496578,6.55009125 C12.3034981,5.40390114 10.6590114,4.90746768 9.07840304,5.21046388 Z"
				id="Path"
				fill="#A876F5"
			></path>
			<path
				d="M10,0 C4.47685171,0 0,4.47631939 0,10.000076 C0,15.5236502 4.47685171,20 10,20 C15.5231179,20 20,15.5236502 20,10.000076 C20,4.47631939 15.5231179,0 10,0 Z M15.998403,11.6627376 L15.9979468,11.6641825 L15.89673,12.0307224 L15.8823574,12.0346008 C15.5754373,12.9221293 15.0688213,13.7340684 14.4020532,14.4009125 C13.1885932,15.6144487 11.5945247,16.2212928 10.0005323,16.2212928 C8.40646388,16.2212928 6.81255513,15.6144487 5.59904183,14.4009125 C3.17201521,11.9737643 3.17201521,8.02471483 5.59889734,5.59795437 C6.26561977,4.93123194 7.077673,4.42441825 7.96532319,4.11735361 L7.96927757,4.10318631 L8.3365019,4.00162738 C10.4960456,3.40476046 12.8204563,4.01621293 14.4020532,5.59795437 C15.9834981,7.17955894 16.5952852,9.50334601 15.998403,11.6627376 Z"
				id="Shape"
				fill="#A876F5"
			></path>
		</g>
	</g>
</svg>
