<svg width="16" height="16" viewBox="0 0 16 16" fill="none"
   xmlns="http://www.w3.org/2000/svg">
   <path d="M14.7375 8.2625L7.7375 1.2625C7.5625 1.0875 7.3875 1 7.125 1H1.875C1.35 1 1 1.35 1 1.875V7.125C1 7.3875 1.0875 7.5625 1.2625 7.7375L8.2625 14.7375C8.4375 14.9125 8.6125 15 8.875 15C9.1375 15 9.3125 14.9125 9.4875 14.7375L14.7375 9.4875C15.0875 9.1375 15.0875 8.6125 14.7375 8.2625ZM4.5 5.375C3.975 5.375 3.625 5.025 3.625 4.5C3.625 3.975 3.975 3.625 4.5 3.625C5.025 3.625 5.375 3.975 5.375 4.5C5.375 5.025 5.025 5.375 4.5 5.375Z" fill="#808080"/>
</svg>
